<svg xmlns="http://www.w3.org/2000/svg" xmlns:xlink="http://www.w3.org/1999/xlink" zoomAndPan="magnify" viewBox="146 329 1208 841" preserveAspectRatio="xMidYMid meet" version="1.0"><defs><clipPath id="ba45fc5d80"><path d="M 84.71875 297.015625 L 1115.84375 297.015625 L 1115.84375 536.984375 L 84.71875 536.984375 Z M 84.71875 297.015625 " clip-rule="nonzero"/></clipPath><clipPath id="08bfff088e"><path d="M 218.070312 297.015625 L 1115.28125 297.015625 L 981.929688 536.984375 L 84.71875 536.984375 Z M 218.070312 297.015625 " clip-rule="nonzero"/></clipPath><clipPath id="8442324748"><path d="M 0.71875 0.015625 L 1031 0.015625 L 1031 239.984375 L 0.71875 239.984375 Z M 0.71875 0.015625 " clip-rule="nonzero"/></clipPath><clipPath id="20e887dc6e"><path d="M 134.070312 0.015625 L 1031.28125 0.015625 L 897.929688 239.984375 L 0.71875 239.984375 Z M 134.070312 0.015625 " clip-rule="nonzero"/></clipPath><clipPath id="3a4e6cc262"><rect x="0" width="1032" y="0" height="240"/></clipPath><clipPath id="38a0ec2c03"><path d="M 0 593.5 L 1031 593.5 L 1031 833.46875 L 0 833.46875 Z M 0 593.5 " clip-rule="nonzero"/></clipPath><clipPath id="6c1f5c34c0"><path d="M 133.355469 593.5 L 1030.566406 593.5 L 897.210938 833.46875 L 0 833.46875 Z M 133.355469 593.5 " clip-rule="nonzero"/></clipPath><clipPath id="0b721a454c"><path d="M 0 0.5 L 1030.800781 0.5 L 1030.800781 240.46875 L 0 240.46875 Z M 0 0.5 " clip-rule="nonzero"/></clipPath><clipPath id="72ddbe5ecb"><path d="M 133.355469 0.5 L 1030.566406 0.5 L 897.210938 240.46875 L 0 240.46875 Z M 133.355469 0.5 " clip-rule="nonzero"/></clipPath><clipPath id="a6e226c019"><rect x="0" width="1031" y="0" height="241"/></clipPath><clipPath id="a29ddc64fb"><path d="M 169.433594 0.53125 L 1200 0.53125 L 1200 240.5 L 169.433594 240.5 Z M 169.433594 0.53125 " clip-rule="nonzero"/></clipPath><clipPath id="de470c88ba"><path d="M 302.789062 0.53125 L 1200 0.53125 L 1066.644531 240.5 L 169.433594 240.5 Z M 302.789062 0.53125 " clip-rule="nonzero"/></clipPath><clipPath id="e8693c7b11"><path d="M 0.433594 0.53125 L 1031 0.53125 L 1031 240.5 L 0.433594 240.5 Z M 0.433594 0.53125 " clip-rule="nonzero"/></clipPath><clipPath id="779dbf7912"><path d="M 133.789062 0.53125 L 1031 0.53125 L 897.644531 240.5 L 0.433594 240.5 Z M 133.789062 0.53125 " clip-rule="nonzero"/></clipPath><clipPath id="3ed06e67e6"><rect x="0" width="1031" y="0" height="241"/></clipPath><clipPath id="847b62285b"><rect x="0" width="1201" y="0" height="834"/></clipPath></defs><g transform="matrix(1, 0, 0, 1, 150, 333)"><g clip-path="url(#847b62285b)"><g clip-path="url(#ba45fc5d80)"><g clip-path="url(#08bfff088e)"><g transform="matrix(1, 0, 0, 1, 84, 297)"><g clip-path="url(#3a4e6cc262)"><g clip-path="url(#8442324748)"><g clip-path="url(#20e887dc6e)"><path fill="#000000" d="M 0.71875 0.015625 L 1030.90625 0.015625 L 1030.90625 239.984375 L 0.71875 239.984375 Z M 0.71875 0.015625 " fill-opacity="1" fill-rule="nonzero"/></g></g></g></g></g></g><g clip-path="url(#38a0ec2c03)"><g clip-path="url(#6c1f5c34c0)"><g transform="matrix(1, 0, 0, 1, 0, 593)"><g clip-path="url(#a6e226c019)"><g clip-path="url(#0b721a454c)"><g clip-path="url(#72ddbe5ecb)"><path fill="#000000" d="M 0 0.5 L 1030.191406 0.5 L 1030.191406 240.46875 L 0 240.46875 Z M 0 0.5 " fill-opacity="1" fill-rule="nonzero"/></g></g></g></g></g></g><g clip-path="url(#a29ddc64fb)"><g clip-path="url(#de470c88ba)"><g transform="matrix(1, 0, 0, 1, 169, 0.000000000000113687)"><g clip-path="url(#3ed06e67e6)"><g clip-path="url(#e8693c7b11)"><g clip-path="url(#779dbf7912)"><path fill="#000000" d="M 0.433594 0.53125 L 1030.625 0.53125 L 1030.625 240.5 L 0.433594 240.5 Z M 0.433594 0.53125 " fill-opacity="1" fill-rule="nonzero"/></g></g></g></g></g></g></g></g></svg>