<svg xmlns="http://www.w3.org/2000/svg" xmlns:xlink="http://www.w3.org/1999/xlink" zoomAndPan="magnify" viewBox="146 329 1208 841" preserveAspectRatio="xMidYMid meet" version="1.0"><defs><clipPath id="54f6ceae8d"><path d="M 84.71875 297.015625 L 1115.84375 297.015625 L 1115.84375 536.984375 L 84.71875 536.984375 Z M 84.71875 297.015625 " clip-rule="nonzero"/></clipPath><clipPath id="db320501a2"><path d="M 218.070312 297.015625 L 1115.28125 297.015625 L 981.929688 536.984375 L 84.71875 536.984375 Z M 218.070312 297.015625 " clip-rule="nonzero"/></clipPath><clipPath id="41a0893efe"><path d="M 0.71875 0.015625 L 1031 0.015625 L 1031 239.984375 L 0.71875 239.984375 Z M 0.71875 0.015625 " clip-rule="nonzero"/></clipPath><clipPath id="6f615cc6ff"><path d="M 134.070312 0.015625 L 1031.28125 0.015625 L 897.929688 239.984375 L 0.71875 239.984375 Z M 134.070312 0.015625 " clip-rule="nonzero"/></clipPath><clipPath id="b9d7ec7a49"><rect x="0" width="1032" y="0" height="240"/></clipPath><clipPath id="414f4a77a1"><path d="M 0 593.5 L 1031 593.5 L 1031 833.46875 L 0 833.46875 Z M 0 593.5 " clip-rule="nonzero"/></clipPath><clipPath id="b5e0f67ca2"><path d="M 133.355469 593.5 L 1030.566406 593.5 L 897.210938 833.46875 L 0 833.46875 Z M 133.355469 593.5 " clip-rule="nonzero"/></clipPath><clipPath id="d02f00d0d6"><path d="M 0 0.5 L 1030.800781 0.5 L 1030.800781 240.46875 L 0 240.46875 Z M 0 0.5 " clip-rule="nonzero"/></clipPath><clipPath id="095d23d80c"><path d="M 133.355469 0.5 L 1030.566406 0.5 L 897.210938 240.46875 L 0 240.46875 Z M 133.355469 0.5 " clip-rule="nonzero"/></clipPath><clipPath id="2bea282428"><rect x="0" width="1031" y="0" height="241"/></clipPath><clipPath id="8184ea73db"><path d="M 169.433594 0.53125 L 1200 0.53125 L 1200 240.5 L 169.433594 240.5 Z M 169.433594 0.53125 " clip-rule="nonzero"/></clipPath><clipPath id="9e6e35853f"><path d="M 302.789062 0.53125 L 1200 0.53125 L 1066.644531 240.5 L 169.433594 240.5 Z M 302.789062 0.53125 " clip-rule="nonzero"/></clipPath><clipPath id="32847d4f2b"><path d="M 0.433594 0.53125 L 1031 0.53125 L 1031 240.5 L 0.433594 240.5 Z M 0.433594 0.53125 " clip-rule="nonzero"/></clipPath><clipPath id="e20614dcc2"><path d="M 133.789062 0.53125 L 1031 0.53125 L 897.644531 240.5 L 0.433594 240.5 Z M 133.789062 0.53125 " clip-rule="nonzero"/></clipPath><clipPath id="fe9a2aa15f"><rect x="0" width="1031" y="0" height="241"/></clipPath><clipPath id="ab6696a0bb"><rect x="0" width="1201" y="0" height="834"/></clipPath></defs><g transform="matrix(1, 0, 0, 1, 150, 333)"><g clip-path="url(#ab6696a0bb)"><g clip-path="url(#54f6ceae8d)"><g clip-path="url(#db320501a2)"><g transform="matrix(1, 0, 0, 1, 84, 297)"><g clip-path="url(#b9d7ec7a49)"><g clip-path="url(#41a0893efe)"><g clip-path="url(#6f615cc6ff)"><path fill="#ffffff" d="M 0.71875 0.015625 L 1030.90625 0.015625 L 1030.90625 239.984375 L 0.71875 239.984375 Z M 0.71875 0.015625 " fill-opacity="1" fill-rule="nonzero"/></g></g></g></g></g></g><g clip-path="url(#414f4a77a1)"><g clip-path="url(#b5e0f67ca2)"><g transform="matrix(1, 0, 0, 1, 0, 593)"><g clip-path="url(#2bea282428)"><g clip-path="url(#d02f00d0d6)"><g clip-path="url(#095d23d80c)"><path fill="#ffffff" d="M 0 0.5 L 1030.191406 0.5 L 1030.191406 240.46875 L 0 240.46875 Z M 0 0.5 " fill-opacity="1" fill-rule="nonzero"/></g></g></g></g></g></g><g clip-path="url(#8184ea73db)"><g clip-path="url(#9e6e35853f)"><g transform="matrix(1, 0, 0, 1, 169, 0.000000000000113687)"><g clip-path="url(#fe9a2aa15f)"><g clip-path="url(#32847d4f2b)"><g clip-path="url(#e20614dcc2)"><path fill="#ffffff" d="M 0.433594 0.53125 L 1030.625 0.53125 L 1030.625 240.5 L 0.433594 240.5 Z M 0.433594 0.53125 " fill-opacity="1" fill-rule="nonzero"/></g></g></g></g></g></g></g></g></svg>