<svg xmlns="http://www.w3.org/2000/svg" xmlns:xlink="http://www.w3.org/1999/xlink" zoomAndPan="magnify" viewBox="140 631 1196 245" preserveAspectRatio="xMidYMid meet" version="1.0"><defs><g/><clipPath id="176abd98ee"><path d="M 22.109375 77.6875 L 291.203125 77.6875 L 291.203125 140.3125 L 22.109375 140.3125 Z M 22.109375 77.6875 " clip-rule="nonzero"/></clipPath><clipPath id="b055701a0e"><path d="M 56.910156 77.6875 L 291.058594 77.6875 L 256.257812 140.3125 L 22.109375 140.3125 Z M 56.910156 77.6875 " clip-rule="nonzero"/></clipPath><clipPath id="461e451c22"><path d="M 0.109375 0.6875 L 269 0.6875 L 269 63.3125 L 0.109375 63.3125 Z M 0.109375 0.6875 " clip-rule="nonzero"/></clipPath><clipPath id="43636c152c"><path d="M 34.910156 0.6875 L 269.058594 0.6875 L 234.257812 63.3125 L 0.109375 63.3125 Z M 34.910156 0.6875 " clip-rule="nonzero"/></clipPath><clipPath id="2b6d7de1f7"><rect x="0" width="270" y="0" height="64"/></clipPath><clipPath id="b70fcb7294"><path d="M 0 155.0625 L 269 155.0625 L 269 217.6875 L 0 217.6875 Z M 0 155.0625 " clip-rule="nonzero"/></clipPath><clipPath id="9a714dce74"><path d="M 34.800781 155.0625 L 268.949219 155.0625 L 234.148438 217.6875 L 0 217.6875 Z M 34.800781 155.0625 " clip-rule="nonzero"/></clipPath><clipPath id="54add2b124"><path d="M 0 0.0625 L 269 0.0625 L 269 62.6875 L 0 62.6875 Z M 0 0.0625 " clip-rule="nonzero"/></clipPath><clipPath id="ba6c2a8b6f"><path d="M 34.800781 0.0625 L 268.949219 0.0625 L 234.148438 62.6875 L 0 62.6875 Z M 34.800781 0.0625 " clip-rule="nonzero"/></clipPath><clipPath id="113a595b48"><rect x="0" width="269" y="0" height="63"/></clipPath><clipPath id="cd45024e99"><path d="M 44.21875 0.3125 L 313.3125 0.3125 L 313.3125 62.9375 L 44.21875 62.9375 Z M 44.21875 0.3125 " clip-rule="nonzero"/></clipPath><clipPath id="00ccec1aef"><path d="M 79.019531 0.3125 L 313.167969 0.3125 L 278.363281 62.9375 L 44.21875 62.9375 Z M 79.019531 0.3125 " clip-rule="nonzero"/></clipPath><clipPath id="0f33757417"><path d="M 0.21875 0.3125 L 269.199219 0.3125 L 269.199219 62.9375 L 0.21875 62.9375 Z M 0.21875 0.3125 " clip-rule="nonzero"/></clipPath><clipPath id="4f9b2951fb"><path d="M 35.019531 0.3125 L 269.167969 0.3125 L 234.363281 62.9375 L 0.21875 62.9375 Z M 35.019531 0.3125 " clip-rule="nonzero"/></clipPath><clipPath id="7108600c2a"><rect x="0" width="270" y="0" height="63"/></clipPath><clipPath id="4626025e8f"><rect x="0" width="314" y="0" height="218"/></clipPath></defs><g fill="#000000" fill-opacity="1"><g transform="translate(463.166681, 829.253693)"><g><path d="M 136.703125 -21.8125 C 140.753906 -17.914062 144.425781 -15.21875 147.71875 -13.71875 C 151.019531 -12.21875 155.066406 -11.46875 159.859375 -11.46875 L 159.859375 3.828125 C 157.765625 4.867188 155.742188 5.613281 153.796875 6.0625 C 151.847656 6.519531 149.148438 6.75 145.703125 6.75 C 140.898438 6.75 136.4375 5.546875 132.3125 3.140625 C 128.195312 0.742188 124.265625 -2.398438 120.515625 -6.296875 C 115.265625 -2.847656 109.226562 -0.113281 102.40625 1.90625 C 95.59375 3.9375 88.140625 4.953125 80.046875 4.953125 C 69.253906 4.953125 59.625 3.226562 51.15625 -0.21875 C 42.6875 -3.664062 35.566406 -8.3125 29.796875 -14.15625 C 24.023438 -20.007812 19.640625 -26.757812 16.640625 -34.40625 C 13.640625 -42.050781 12.140625 -50.066406 12.140625 -58.453125 L 12.140625 -91.0625 C 12.140625 -99.601562 13.640625 -107.695312 16.640625 -115.34375 C 19.640625 -122.988281 24.023438 -129.695312 29.796875 -135.46875 C 35.566406 -141.238281 42.6875 -145.8125 51.15625 -149.1875 C 59.625 -152.5625 69.253906 -154.25 80.046875 -154.25 C 90.835938 -154.25 100.46875 -152.5625 108.9375 -149.1875 C 117.40625 -145.8125 124.523438 -141.238281 130.296875 -135.46875 C 136.066406 -129.695312 140.453125 -122.988281 143.453125 -115.34375 C 146.453125 -107.695312 147.953125 -99.601562 147.953125 -91.0625 L 147.953125 -58.453125 C 147.953125 -44.671875 144.203125 -32.457031 136.703125 -21.8125 Z M 118.046875 -39.578125 C 120.585938 -45.421875 121.859375 -51.640625 121.859375 -58.234375 L 121.859375 -91.515625 C 121.859375 -97.054688 120.957031 -102.300781 119.15625 -107.25 C 117.363281 -112.195312 114.707031 -116.503906 111.1875 -120.171875 C 107.664062 -123.847656 103.316406 -126.734375 98.140625 -128.828125 C 92.972656 -130.929688 86.941406 -131.984375 80.046875 -131.984375 C 73.148438 -131.984375 67.113281 -130.929688 61.9375 -128.828125 C 56.769531 -126.734375 52.425781 -123.847656 48.90625 -120.171875 C 45.382812 -116.503906 42.722656 -112.195312 40.921875 -107.25 C 39.117188 -102.300781 38.21875 -97.054688 38.21875 -91.515625 L 38.21875 -58.234375 C 38.21875 -52.691406 39.117188 -47.445312 40.921875 -42.5 C 42.722656 -37.550781 45.382812 -33.238281 48.90625 -29.5625 C 52.425781 -25.894531 56.769531 -22.972656 61.9375 -20.796875 C 67.113281 -18.617188 73.148438 -17.53125 80.046875 -17.53125 C 84.546875 -17.53125 88.703125 -18.015625 92.515625 -18.984375 C 96.335938 -19.960938 99.75 -21.28125 102.75 -22.9375 C 101.695312 -23.988281 100.570312 -25.035156 99.375 -26.078125 C 98.332031 -26.984375 97.207031 -28.035156 96 -29.234375 C 94.800781 -30.429688 93.53125 -31.703125 92.1875 -33.046875 C 89.039062 -36.046875 85.519531 -39.492188 81.625 -43.390625 L 99.609375 -56.890625 Z M 118.046875 -39.578125 "/></g></g></g><g fill="#000000" fill-opacity="1"><g transform="translate(619.207056, 829.253693)"><g><path d="M 95.5625 0 L 94.65625 -26.984375 C 89.863281 -17.085938 84.054688 -9.816406 77.234375 -5.171875 C 70.410156 -0.523438 62.28125 1.796875 52.84375 1.796875 C 40.695312 1.796875 31.515625 -1.570312 25.296875 -8.3125 C 19.078125 -15.0625 15.96875 -24.054688 15.96875 -35.296875 L 15.96875 -105.234375 L 40.25 -105.234375 L 40.25 -37.78125 C 40.25 -30.582031 42.082031 -25.144531 45.75 -21.46875 C 49.425781 -17.800781 54.710938 -15.96875 61.609375 -15.96875 C 65.804688 -15.96875 69.773438 -17.050781 73.515625 -19.21875 C 77.265625 -21.394531 80.523438 -24.171875 83.296875 -27.546875 C 86.078125 -30.921875 88.289062 -34.703125 89.9375 -38.890625 C 91.582031 -43.085938 92.40625 -47.285156 92.40625 -51.484375 L 92.40625 -105.234375 L 116.46875 -105.234375 L 116.46875 0 Z M 95.5625 0 "/></g></g></g><g fill="#000000" fill-opacity="1"><g transform="translate(742.195635, 829.253693)"><g><path d="M 108.375 1.796875 C 105.675781 1.796875 103.085938 1.492188 100.609375 0.890625 C 98.140625 0.296875 95.96875 -0.707031 94.09375 -2.125 C 92.21875 -3.550781 90.753906 -5.425781 89.703125 -7.75 C 88.660156 -10.070312 88.210938 -12.957031 88.359375 -16.40625 C 83.566406 -10.5625 77.609375 -6.066406 70.484375 -2.921875 C 63.367188 0.222656 55.765625 1.796875 47.671875 1.796875 C 36.421875 1.796875 27.3125 -0.898438 20.34375 -6.296875 C 13.375 -11.691406 9.890625 -19.113281 9.890625 -28.5625 L 9.890625 -29.453125 C 9.890625 -36.203125 11.875 -41.859375 15.84375 -46.421875 C 19.820312 -50.992188 25.144531 -54.515625 31.8125 -56.984375 C 38.488281 -59.460938 46.207031 -60.925781 54.96875 -61.375 C 63.738281 -61.832031 73 -61.382812 82.75 -60.03125 L 82.75 -68.125 C 82.75 -74.875 80.945312 -80.117188 77.34375 -83.859375 C 73.75 -87.609375 68.425781 -89.484375 61.375 -89.484375 C 54.488281 -89.484375 48.90625 -87.945312 44.625 -84.875 C 40.351562 -81.800781 36.492188 -77.414062 33.046875 -71.71875 L 15.734375 -80.71875 C 20.378906 -89.257812 26.335938 -95.890625 33.609375 -100.609375 C 40.878906 -105.335938 49.765625 -107.703125 60.265625 -107.703125 C 68.054688 -107.703125 74.796875 -106.6875 80.484375 -104.65625 C 86.179688 -102.632812 90.90625 -99.75 94.65625 -96 C 98.40625 -92.257812 101.175781 -87.765625 102.96875 -82.515625 C 104.769531 -77.265625 105.671875 -71.421875 105.671875 -64.984375 L 105.671875 -23.15625 C 105.671875 -20.15625 106.421875 -18.054688 107.921875 -16.859375 C 109.421875 -15.660156 112.421875 -15.0625 116.921875 -15.0625 L 116.921875 1.796875 Z M 82.75 -45.875 C 66.550781 -48.414062 54.253906 -48.222656 45.859375 -45.296875 C 37.472656 -42.378906 33.28125 -37.320312 33.28125 -30.125 L 33.28125 -29.671875 C 33.28125 -25.929688 34.960938 -22.710938 38.328125 -20.015625 C 41.703125 -17.316406 46.238281 -15.96875 51.9375 -15.96875 C 55.53125 -15.96875 59.125 -16.488281 62.71875 -17.53125 C 66.320312 -18.582031 69.625 -20.007812 72.625 -21.8125 C 75.625 -23.613281 78.0625 -25.75 79.9375 -28.21875 C 81.8125 -30.6875 82.75 -33.421875 82.75 -36.421875 Z M 82.75 -45.875 "/></g></g></g><g fill="#000000" fill-opacity="1"><g transform="translate(856.415444, 829.253693)"><g><path d="M 80.9375 -84.09375 C 73.894531 -85.289062 67.828125 -85.625 62.734375 -85.09375 C 57.640625 -84.570312 53.441406 -83.410156 50.140625 -81.609375 C 46.835938 -79.816406 44.398438 -77.53125 42.828125 -74.75 C 41.253906 -71.976562 40.46875 -68.945312 40.46875 -65.65625 L 40.46875 0 L 16.40625 0 L 16.40625 -105.234375 L 37.328125 -105.234375 L 38.21875 -80.9375 C 40.320312 -86.488281 42.679688 -91.023438 45.296875 -94.546875 C 47.921875 -98.066406 50.957031 -100.765625 54.40625 -102.640625 C 57.851562 -104.515625 61.75 -105.675781 66.09375 -106.125 C 70.445312 -106.570312 75.394531 -106.5 80.9375 -105.90625 Z M 80.9375 -84.09375 "/></g></g></g><g fill="#000000" fill-opacity="1"><g transform="translate(937.808244, 829.253693)"><g><path d="M 73.296875 -8.3125 C 69.703125 -0.675781 66.40625 5.835938 63.40625 11.234375 C 60.40625 16.640625 57.101562 21.101562 53.5 24.625 C 49.90625 28.144531 45.707031 30.691406 40.90625 32.265625 C 36.113281 33.835938 30.125 34.625 22.9375 34.625 L 13.484375 34.625 L 13.484375 17.53125 L 22.265625 17.53125 C 28.703125 17.53125 33.382812 16.40625 36.3125 14.15625 C 39.238281 11.914062 41.675781 8.617188 43.625 4.265625 L 45.640625 -0.90625 L 2.46875 -105.234375 L 27.4375 -105.234375 L 48.34375 -49.6875 L 57.78125 -24.28125 L 67.234375 -49.6875 L 87.46875 -105.234375 L 112.421875 -105.234375 Z M 73.296875 -8.3125 "/></g></g></g><g fill="#000000" fill-opacity="1"><g transform="translate(1045.282767, 829.253693)"><g><path d="M 16.40625 0 L 16.40625 -149.75 L 40.015625 -149.75 L 40.015625 0 Z M 16.40625 0 "/></g></g></g><g fill="#000000" fill-opacity="1"><g transform="translate(1093.398943, 829.253693)"><g><path d="M 17.09375 -123.4375 L 17.09375 -144.796875 L 40.015625 -144.796875 L 40.015625 -123.4375 Z M 16.40625 0 L 16.40625 -105.234375 L 40.703125 -105.234375 L 40.703125 0 Z M 16.40625 0 "/></g></g></g><g fill="#000000" fill-opacity="1"><g transform="translate(1142.189634, 829.253693)"><g><path d="M 49.234375 -87.6875 L 49.234375 -33.28125 C 49.234375 -26.832031 50.171875 -20.796875 52.046875 -15.171875 C 53.921875 -9.554688 56.804688 -4.5 60.703125 0 L 33.71875 0 C 27.875 -7.644531 24.953125 -18.738281 24.953125 -33.28125 L 24.953125 -87.6875 L 6.515625 -87.6875 L 6.515625 -105.234375 L 25.625 -105.234375 L 25.625 -124.109375 L 49.234375 -132.203125 L 49.234375 -105.234375 L 71.953125 -105.234375 L 71.953125 -87.6875 Z M 49.234375 -87.6875 "/></g></g></g><g fill="#000000" fill-opacity="1"><g transform="translate(1212.790016, 829.253693)"><g><path d="M 34.625 -50.59375 L 34.625 -40.46875 C 34.625 -33.425781 37.242188 -27.582031 42.484375 -22.9375 C 47.734375 -18.289062 54.78125 -15.96875 63.625 -15.96875 C 70.519531 -15.96875 76.253906 -17.914062 80.828125 -21.8125 C 85.398438 -25.707031 88.738281 -30.503906 90.84375 -36.203125 L 110.171875 -29.453125 C 101.472656 -8.617188 85.507812 1.796875 62.28125 1.796875 C 54.789062 1.796875 47.894531 0.710938 41.59375 -1.453125 C 35.300781 -3.628906 29.90625 -6.703125 25.40625 -10.671875 C 20.90625 -14.648438 17.378906 -19.445312 14.828125 -25.0625 C 12.285156 -30.6875 11.015625 -37.019531 11.015625 -44.0625 L 11.015625 -60.9375 C 11.015625 -67.53125 12.175781 -73.671875 14.5 -79.359375 C 16.820312 -85.054688 20.117188 -90.003906 24.390625 -94.203125 C 28.660156 -98.398438 33.90625 -101.695312 40.125 -104.09375 C 46.351562 -106.5 53.4375 -107.703125 61.375 -107.703125 C 69.175781 -107.703125 76.1875 -106.539062 82.40625 -104.21875 C 88.625 -101.894531 93.832031 -98.632812 98.03125 -94.4375 C 102.226562 -90.238281 105.453125 -85.253906 107.703125 -79.484375 C 109.953125 -73.710938 111.078125 -67.378906 111.078125 -60.484375 L 111.078125 -50.59375 Z M 88.359375 -67.453125 C 88.359375 -70.296875 87.722656 -73.101562 86.453125 -75.875 C 85.179688 -78.65625 83.382812 -81.054688 81.0625 -83.078125 C 78.738281 -85.097656 75.960938 -86.742188 72.734375 -88.015625 C 69.515625 -89.296875 65.878906 -89.9375 61.828125 -89.9375 C 53.429688 -89.9375 46.796875 -87.757812 41.921875 -83.40625 C 37.054688 -79.0625 34.625 -73.742188 34.625 -67.453125 L 34.625 -62.953125 L 88.359375 -62.953125 Z M 88.359375 -67.453125 "/></g></g></g><g transform="matrix(1, 0, 0, 1, 150, 641)"><g clip-path="url(#4626025e8f)"><g clip-path="url(#176abd98ee)"><g clip-path="url(#b055701a0e)"><g transform="matrix(1, 0, 0, 1, 22, 77)"><g clip-path="url(#2b6d7de1f7)"><g clip-path="url(#461e451c22)"><g clip-path="url(#43636c152c)"><path fill="#000000" d="M 0.109375 0.6875 L 268.960938 0.6875 L 268.960938 63.3125 L 0.109375 63.3125 Z M 0.109375 0.6875 " fill-opacity="1" fill-rule="nonzero"/></g></g></g></g></g></g><g clip-path="url(#b70fcb7294)"><g clip-path="url(#9a714dce74)"><g transform="matrix(1, 0, 0, 1, 0, 155)"><g clip-path="url(#113a595b48)"><g clip-path="url(#54add2b124)"><g clip-path="url(#ba6c2a8b6f)"><path fill="#000000" d="M 0 0.0625 L 268.851562 0.0625 L 268.851562 62.6875 L 0 62.6875 Z M 0 0.0625 " fill-opacity="1" fill-rule="nonzero"/></g></g></g></g></g></g><g clip-path="url(#cd45024e99)"><g clip-path="url(#00ccec1aef)"><g transform="matrix(1, 0, 0, 1, 44, 0.000000000000113687)"><g clip-path="url(#7108600c2a)"><g clip-path="url(#0f33757417)"><g clip-path="url(#4f9b2951fb)"><path fill="#000000" d="M 0.21875 0.3125 L 269.070312 0.3125 L 269.070312 62.9375 L 0.21875 62.9375 Z M 0.21875 0.3125 " fill-opacity="1" fill-rule="nonzero"/></g></g></g></g></g></g></g></g></svg>